<?xml version="1.0" encoding="UTF-8"?>
<svg version="1.1" xmlns="http://www.w3.org/2000/svg" width="512" height="512">
<path d="M0 0 C1.45108658 0.00273422 1.45108658 0.00273422 2.93148804 0.00552368 C17.26440977 0.05095174 31.21023917 0.55983928 45.3125 3.3125 C46.65803955 3.55395752 46.65803955 3.55395752 48.03076172 3.80029297 C107.84088904 14.62287989 165.35495829 48.68064457 202.3125 97.3125 C202.72918945 97.85277832 203.14587891 98.39305664 203.57519531 98.94970703 C211.2584873 108.9447116 218.00092968 119.40459036 224.3125 130.3125 C224.70679199 130.98974121 225.10108398 131.66698242 225.50732422 132.36474609 C238.68961173 155.2833756 247.29510918 180.85822563 252.625 206.6875 C252.77243652 207.39817627 252.91987305 208.10885254 253.07177734 208.84106445 C256.05713787 224.48358366 256.6873098 240.11919606 256.625 256 C256.62226578 257.45108658 256.62226578 257.45108658 256.61947632 258.93148804 C256.57404826 273.26440977 256.06516072 287.21023917 253.3125 301.3125 C253.15152832 302.20952637 252.99055664 303.10655273 252.82470703 304.03076172 C242.00212011 363.84088904 207.94435543 421.35495829 159.3125 458.3125 C158.77222168 458.72918945 158.23194336 459.14587891 157.67529297 459.57519531 C147.6802884 467.2584873 137.22040964 474.00092968 126.3125 480.3125 C125.63525879 480.70679199 124.95801758 481.10108398 124.26025391 481.50732422 C101.3416244 494.68961173 75.76677437 503.29510918 49.9375 508.625 C49.22682373 508.77243652 48.51614746 508.91987305 47.78393555 509.07177734 C32.91581614 511.90934438 18.03844593 512.66283959 2.93701172 512.62817383 C0.07871118 512.6250179 -2.77854516 512.64857578 -5.63671875 512.67382812 C-18.87029805 512.71920177 -31.63866546 511.48145966 -44.6875 509.3125 C-46.39413818 509.03031616 -46.39413818 509.03031616 -48.13525391 508.74243164 C-107.57972909 498.05619461 -165.01938976 463.56349705 -201.6875 415.3125 C-202.10418945 414.77222168 -202.52087891 414.23194336 -202.95019531 413.67529297 C-210.6334873 403.6802884 -217.37592968 393.22040964 -223.6875 382.3125 C-224.08179199 381.63525879 -224.47608398 380.95801758 -224.88232422 380.26025391 C-238.06461173 357.3416244 -246.67010918 331.76677437 -252 305.9375 C-252.14743652 305.22682373 -252.29487305 304.51614746 -252.44677734 303.78393555 C-255.43213787 288.14141634 -256.0623098 272.50580394 -256 256.625 C-255.99817719 255.65760895 -255.99635437 254.6902179 -255.99447632 253.69351196 C-255.94904826 239.36059023 -255.44016072 225.41476083 -252.6875 211.3125 C-252.44604248 209.96696045 -252.44604248 209.96696045 -252.19970703 208.59423828 C-241.37712011 148.78411096 -207.31935543 91.27004171 -158.6875 54.3125 C-158.14722168 53.89581055 -157.60694336 53.47912109 -157.05029297 53.04980469 C-147.0552884 45.3665127 -136.59540964 38.62407032 -125.6875 32.3125 C-125.01025879 31.91820801 -124.33301758 31.52391602 -123.63525391 31.11767578 C-100.7166244 17.93538827 -75.14177437 9.32989082 -49.3125 4 C-48.60182373 3.85256348 -47.89114746 3.70512695 -47.15893555 3.55322266 C-31.51641634 0.56786213 -15.88080394 -0.0623098 0 0 Z " fill="#AEDEF9" transform="translate(255.6875,-0.3125)"/>
<path d="M0 0 C0.68368652 0.21430664 1.36737305 0.42861328 2.07177734 0.64941406 C19.64117235 6.19000363 39.16745343 14.40559537 52 28 C50.72125 28.31453125 49.4425 28.6290625 48.125 28.953125 C46.41654422 29.3849325 44.70821767 29.81725152 43 30.25 C42.16082031 30.45496094 41.32164062 30.65992188 40.45703125 30.87109375 C34.11680454 32.49301221 27.59962385 34.1768085 23.046875 39.12109375 C14.40760157 54.55208515 12.80108233 71.40620531 11.375 88.6875 C11.24006393 90.27543154 11.10465069 91.8633226 10.96875 93.45117188 C10.64033753 97.30033738 10.31836186 101.14999073 10 105 C9.09181519 104.53811279 9.09181519 104.53811279 8.1652832 104.06689453 C-8.0825131 96.06115884 -30.77360502 96.61919404 -47.69140625 102.22265625 C-68.329496 109.79935814 -86.28307057 123.26423361 -98 142 C-98.59554687 142.93585938 -99.19109375 143.87171875 -99.8046875 144.8359375 C-113.56305763 167.33352986 -118.15002938 196.91304676 -113.24609375 222.91015625 C-112.33368576 226.37015046 -111.2749178 229.6588361 -110 233 C-109.68804687 233.9590625 -109.37609375 234.918125 -109.0546875 235.90625 C-105.44165226 246.71499407 -100.40596476 256.32318922 -93 265 C-93.71752698 261.64891246 -94.938672 258.6972097 -96.3125 255.5625 C-107.43975921 229.06290003 -108.24222045 200.76113294 -97.77734375 173.89892578 C-87.57519285 148.97671169 -69.58203728 128.67738608 -44.8125 117.5625 C-28.33512268 111.03790093 -8.09297652 107.86855162 9 114 C7.88917537 152.57242755 3.27614138 192.8749611 -16 227 C-16.55171875 227.98871094 -17.1034375 228.97742188 -17.671875 229.99609375 C-29.72256519 250.224038 -49.12059597 262.78007158 -71.4921875 269.15625 C-75.62307053 270.14986997 -79.75544391 271.00309339 -83.9375 271.75 C-84.6281958 271.87793945 -85.3188916 272.00587891 -86.03051758 272.13769531 C-93.19980068 273.30906593 -99.4578488 273 -107 273 C-107 283.23 -107 293.46 -107 304 C-112.28 304 -117.56 304 -123 304 C-123 293.77 -123 283.54 -123 273 C-128.28 272.34 -133.56 271.68 -139 271 C-139 281.89 -139 292.78 -139 304 C-144.28 304 -149.56 304 -155 304 C-155 292.12 -155 280.24 -155 268 C-157.97 267.67 -160.94 267.34 -164 267 C-188.13758382 262.49707122 -212.0685503 253.18100105 -234.625 243.625 C-235.78604248 243.13757324 -236.94708496 242.65014648 -238.14331055 242.14794922 C-243.76167466 239.70634917 -248.78089984 237.51683356 -253 233 C-254.03819246 229.89074668 -253.7863128 227.16820922 -253 224 C-250.81840855 221.24430553 -249.12822506 219.56411253 -246 218 C-244.59525085 217.83906547 -243.18476176 217.72655488 -241.7734375 217.640625 C-214.41319155 215.70336666 -191.14363173 205.57978361 -172.96484375 184.65234375 C-152.00727892 159.4383134 -139.30838024 127.78723632 -126.5 97.9375 C-115.66756726 72.70253986 -104.67318181 47.27590106 -87 26 C-86.24847656 25.09507813 -85.49695313 24.19015625 -84.72265625 23.2578125 C-62.98213379 -1.88324862 -31.53963288 -10.37373657 0 0 Z " fill="#356178" transform="translate(355,100)"/>
<path d="M0 0 C1.14782959 0.05172363 1.14782959 0.05172363 2.31884766 0.10449219 C6.75023822 0.37012356 10.50725389 1.05926423 14.6875 2.6875 C13.57667537 41.25992755 8.96364138 81.5624611 -10.3125 115.6875 C-10.86421875 116.67621094 -11.4159375 117.66492188 -11.984375 118.68359375 C-24.14854261 139.10201796 -43.58067378 151.39734098 -66.08203125 157.91015625 C-71.43994651 159.19942486 -76.8472542 160.00769856 -82.3125 160.6875 C-97.5861229 135.42727751 -103.48955886 106.64309084 -96.80859375 77.68994141 C-90.05075653 50.41249018 -74.10673539 26.80136574 -50.11328125 11.87890625 C-34.45816591 2.60579961 -18.00216567 -0.86433638 0 0 Z " fill="#3D718C" transform="translate(349.3125,211.3125)"/>
<path d="M0 0 C-2.15540199 7.66650683 -4.81096742 15.07684998 -7.6875 22.5 C-8.13029297 23.643479 -8.57308594 24.78695801 -9.02929688 25.96508789 C-23.03206908 61.82578454 -42.38540946 103.03067664 -78 122 C-78.66 122 -79.32 122 -80 122 C-80.495 122.99 -80.495 122.99 -81 124 C-86.64817407 95.91042002 -81.46184739 66.41123814 -65.85498047 42.22558594 C-51.3883522 21.2040494 -31.50890672 6.40075311 -6.5234375 0.4453125 C-4 0 -4 0 0 0 Z " fill="#4681A0" transform="translate(333,212)"/>
<path d="M0 0 C5.34031554 1.03058721 10.31230896 2.42627642 15.4375 4.25 C31.2983511 9.75883396 48.28705005 13.43633397 65 15 C66.02996094 15.10957031 67.05992187 15.21914063 68.12109375 15.33203125 C92.23702185 17.59007695 115.20314601 15.74715701 137.79296875 6.63671875 C140 6 140 6 143 7 C144.36070892 9.48477281 145.57361293 11.93043207 146.75 14.5 C151.08389011 23.54546783 155.91899685 30.88997323 164 37 C163.67 37.66 163.34 38.32 163 39 C158 40 158 40 144 40 C144 50.23 144 60.46 144 71 C138.72 71 133.44 71 128 71 C128 60.77 128 50.54 128 40 C122.72 39.34 117.44 38.68 112 38 C112 48.89 112 59.78 112 71 C106.72 71 101.44 71 96 71 C96 59.12 96 47.24 96 35 C93.03 34.67 90.06 34.34 87 34 C62.81180615 29.48762979 38.81439642 20.16603148 16.25 10.5 C15.07219971 9.99581543 13.89439941 9.49163086 12.6809082 8.97216797 C3.19519874 4.81807898 3.19519874 4.81807898 0 2 C0 1.34 0 0.68 0 0 Z " fill="#2E5367" transform="translate(104,333)"/>
<path d="M0 0 C1.57421875 1.92578125 1.57421875 1.92578125 1.59448242 4.12036133 C1.34570789 6.4150648 1.01123854 8.65992866 0.57421875 10.92578125 C-0.52792969 10.76980469 -1.63007813 10.61382812 -2.765625 10.453125 C-28.03675641 7.10986248 -50.73004175 11.09280627 -71.73828125 26.23828125 C-94.1605822 44.01205639 -108.45717359 69.02994243 -112.14453125 97.4296875 C-113.82690023 118.34246858 -111.01840084 139.54450451 -101.171875 158.33203125 C-100.59566406 159.51796875 -100.01945312 160.70390625 -99.42578125 161.92578125 C-99.75578125 162.58578125 -100.08578125 163.24578125 -100.42578125 163.92578125 C-106.02503635 158.14430187 -109.80429649 152.08428464 -113.42578125 144.92578125 C-113.79574219 144.25804687 -114.16570312 143.5903125 -114.546875 142.90234375 C-117.79062483 136.91970788 -119.65672478 130.47426338 -121.42578125 123.92578125 C-121.60818359 123.30010254 -121.79058594 122.67442383 -121.97851562 122.02978516 C-123.87336482 114.80609406 -123.72006808 107.60120662 -123.67578125 100.17578125 C-123.68351563 98.89445312 -123.69125 97.613125 -123.69921875 96.29296875 C-123.64023349 67.21323602 -112.98968839 41.39327113 -92.67578125 20.61328125 C-69.17384622 -2.55067995 -31.13076971 -13.78576759 0 0 Z " fill="#8EB1C5" transform="translate(363.42578125,203.07421875)"/>
<path d="M0 0 C4.44805817 2.47773314 8.50709422 5.06834208 10.70703125 9.79296875 C12.51991543 16.69980213 12.2381973 23.99121534 8.60546875 30.21875 C5.56528537 34.03665471 1.84999589 36.37682429 -2.73828125 37.90625 C-8.74737184 38.44406878 -13.5953257 38.37475491 -18.73828125 34.90625 C-23.36638302 30.92392988 -26.35931326 27.26612478 -27.05859375 21.06640625 C-27.23363555 16.34611226 -27.17735767 12.85465507 -25.17578125 8.53125 C-18.04624948 0.85329271 -10.75829635 -4.29717971 0 0 Z " fill="#EFF0F0" transform="translate(333.73828125,124.09375)"/>
<path d="M0 0 C2.93258322 1.46629161 3.45706797 3.78795061 4.50537109 6.7578125 C5.30723261 10.39270695 4.36882608 13.53482497 3.3125 17 C2.90892157 18.50610077 2.51191083 20.01397499 2.12109375 21.5234375 C1.8269458 22.65217285 1.8269458 22.65217285 1.52685547 23.80371094 C-1.6591854 37.08527892 -1.88966483 51.41892292 -3 65 C-3.59458008 64.6913501 -4.18916016 64.3827002 -4.80175781 64.06469727 C-12.19320999 60.48471915 -20.84146565 58.65268275 -29 58 C-28.50768494 50.80382033 -25.67030517 44.54805677 -22.9375 37.9375 C-22.43943848 36.729729 -21.94137695 35.52195801 -21.42822266 34.27758789 C-15.93425401 21.17176014 -10.14466718 10.19163324 0 0 Z " fill="#2E5367" transform="translate(368,140)"/>
<path d="M0 0 C12.50572757 4.20780951 23.95010563 11.52976382 34 20 C30.41510932 22.04592246 26.74272813 22.89702408 22.75 23.875 C11.83431847 26.74678893 7.11889441 28.725814 1.25 38.734375 C0.63125 39.85585937 0.63125 39.85585937 0 41 C-6.35870351 32.98629147 -5.64883215 22.75185035 -5 13 C-4.05793731 8.0951962 -2.77237748 4.15856622 0 0 Z " fill="#E38145" transform="translate(373,107)"/>
<path d="M0 0 C12 1 12 1 16 2 C16 12.89 16 23.78 16 35 C10.72 35 5.44 35 0 35 C0 23.45 0 11.9 0 0 Z " fill="#E1844C" transform="translate(200,369)"/>
<path d="M0 0 C5.28 0 10.56 0 16 0 C16 10.23 16 20.46 16 31 C10.72 31 5.44 31 0 31 C0 20.77 0 10.54 0 0 Z " fill="#E2854C" transform="translate(232,373)"/>
<path d="M0 0 C8.98394038 -0.6195821 17.23701279 1.50421814 25.48046875 5.07421875 C27.44457656 7.56343507 27.08107737 8.59451642 26.75 11.6875 C26.52019671 13.12836665 26.27632268 14.56732696 26 16 C24.27716797 15.7834375 24.27716797 15.7834375 22.51953125 15.5625 C13.25927619 14.44119564 4.33943135 13.78280392 -5 14 C-3.35 9.38 -1.7 4.76 0 0 Z " fill="#83A4B6" transform="translate(338,198)"/>
<path d="M0 0 C3.52519462 0.86883585 4.91788608 2.54462407 6.93359375 5.4765625 C7.87144763 8.21288913 8.24807905 10.59378061 7.93359375 13.4765625 C6.16895314 16.33649728 4.93793678 17.97439099 1.93359375 19.4765625 C-5.00904049 20.15944456 -5.00904049 20.15944456 -9.06640625 17.5390625 C-11.39838638 13.96821793 -11.8090819 11.83150231 -11.54296875 7.63671875 C-10.19458836 1.52479778 -5.72816184 -0.41147476 0 0 Z " fill="#292929" transform="translate(328.06640625,132.5234375)"/>
<path d="M0 0 C0.19110352 0.59425781 0.38220703 1.18851562 0.57910156 1.80078125 C1.46284384 4.53602208 2.356349 7.26798124 3.25 10 C3.55035156 10.93457031 3.85070312 11.86914062 4.16015625 12.83203125 C5.61364054 17.25433451 7.12928259 21.43623975 9.296875 25.5625 C9.85890625 26.696875 10.4209375 27.83125 11 29 C10.67 29.66 10.34 30.32 10 31 C4.40427378 25.22216434 0.60701411 19.16205395 -3 12 C-3.41636719 11.20464844 -3.83273438 10.40929687 -4.26171875 9.58984375 C-7 4.29583333 -7 4.29583333 -7 2 C-4.35261084 0.5393715 -3.10551666 0 0 0 Z " fill="#81A3B5" transform="translate(253,336)"/>
<path d="M0 0 C-2 2 -2 2 -5.25 3.5 C-10.2678773 6.23511132 -12.43925086 11.08486245 -15 16 C-17.70705488 12.6615409 -18.51178906 10.29625631 -19 6 C-17.41925436 5.18247697 -15.83528777 4.37118003 -14.25 3.5625 C-13.36828125 3.11003906 -12.4865625 2.65757812 -11.578125 2.19140625 C-7.57288659 0.34050062 -4.39903712 -0.12219548 0 0 Z " fill="#D27A44" transform="translate(388,132)"/>
</svg>
